<svg xmlns="http://www.w3.org/2000/svg" width="960" height="680" viewBox="0 0 960 680" role="img" aria-labelledby="title desc">
  <title id="title">Brochure hero preview</title>
  <desc id="desc">A layered product-style brochure image with panels, charts, and content blocks.</desc>
  <defs>
    <linearGradient id="bg" x1="0" x2="1" y1="0" y2="1">
      <stop offset="0" stop-color="#f6faf8"/>
      <stop offset="0.48" stop-color="#dceee8"/>
      <stop offset="1" stop-color="#f9e8d8"/>
    </linearGradient>
    <linearGradient id="panel" x1="0" x2="1" y1="0" y2="1">
      <stop offset="0" stop-color="#ffffff"/>
      <stop offset="1" stop-color="#edf5f2"/>
    </linearGradient>
    <filter id="shadow" x="-20%" y="-20%" width="140%" height="140%">
      <feDropShadow dx="0" dy="18" stdDeviation="18" flood-color="#17342d" flood-opacity="0.18"/>
    </filter>
  </defs>
  <rect width="960" height="680" rx="40" fill="url(#bg)"/>
  <path d="M74 130c88-46 157-56 250-22 96 34 145 16 244-30 91-42 186-9 262 72 72 77 81 180 18 275-64 97-162 128-278 112-96-14-159 15-240 50-96 41-199 17-259-65-61-85-64-219 3-392Z" fill="#f5f1dd" opacity=".74"/>
  <g filter="url(#shadow)">
    <rect x="132" y="118" width="572" height="394" rx="26" fill="url(#panel)"/>
    <rect x="166" y="158" width="226" height="146" rx="18" fill="#0f3d3e"/>
    <path d="M192 259l48-52 45 36 34-42 51 58z" fill="#95d0be"/>
    <circle cx="224" cy="194" r="18" fill="#f6c453"/>
    <rect x="426" y="164" width="226" height="24" rx="12" fill="#244b5a"/>
    <rect x="426" y="208" width="176" height="14" rx="7" fill="#7fa395"/>
    <rect x="426" y="236" width="204" height="14" rx="7" fill="#b9cfc7"/>
    <rect x="426" y="264" width="132" height="14" rx="7" fill="#b9cfc7"/>
    <rect x="166" y="342" width="112" height="96" rx="16" fill="#f2bf7f"/>
    <rect x="302" y="342" width="112" height="96" rx="16" fill="#8cc7bf"/>
    <rect x="438" y="342" width="112" height="96" rx="16" fill="#c990a8"/>
    <rect x="574" y="342" width="78" height="96" rx="16" fill="#2f5f73"/>
  </g>
  <g filter="url(#shadow)">
    <rect x="618" y="258" width="204" height="264" rx="24" fill="#ffffff"/>
    <rect x="648" y="298" width="144" height="16" rx="8" fill="#244b5a"/>
    <rect x="648" y="330" width="106" height="12" rx="6" fill="#94a89e"/>
    <rect x="648" y="368" width="128" height="128" rx="18" fill="#edf4ef"/>
    <path d="M671 463c18-44 38-69 60-76 22-8 42 4 62 36v73H671z" fill="#7db7a9"/>
    <circle cx="692" cy="404" r="18" fill="#e7aa72"/>
  </g>
</svg>
